<svg xmlns="http://www.w3.org/2000/svg" width="900" height="225" viewBox="0 0 900 225" role="img" aria-labelledby="title desc">
<title id="title">GitHub contribution activity for the last 30 days</title>
<desc id="desc">Automatically generated from the public GitHub contribution calendar.</desc>
<style>text{font-family:-apple-system,BlinkMacSystemFont,"Segoe UI",Helvetica,Arial,sans-serif}</style>
<defs><linearGradient id="activity-fill" x1="0" y1="0" x2="0" y2="1"><stop offset="0" stop-color="#0969DA" stop-opacity="0.35"/><stop offset="1" stop-color="#0969DA" stop-opacity="0.02"/></linearGradient></defs>
<rect width="900" height="225" rx="8" fill="#FFFFFF"/>
<rect x="0.5" y="0.5" width="899" height="224" rx="8" fill="none" stroke="#D0D7DE"/>
<text x="24" y="31" fill="#1F2328" font-size="16" font-weight="600">Contribution Activity · Last 30 Days</text>
<text x="876" y="31" text-anchor="end" fill="#656D76" font-size="13">279 contributions</text>
<line x1="58" y1="187.0" x2="876" y2="187.0" stroke="#D0D7DE" stroke-dasharray="3 5"/>
<text x="46" y="191.0" text-anchor="end" fill="#656D76" font-size="10">0</text>
<line x1="58" y1="160.6" x2="876" y2="160.6" stroke="#D0D7DE" stroke-dasharray="3 5"/>
<text x="46" y="164.6" text-anchor="end" fill="#656D76" font-size="10">5</text>
<line x1="58" y1="134.2" x2="876" y2="134.2" stroke="#D0D7DE" stroke-dasharray="3 5"/>
<text x="46" y="138.2" text-anchor="end" fill="#656D76" font-size="10">10</text>
<line x1="58" y1="107.8" x2="876" y2="107.8" stroke="#D0D7DE" stroke-dasharray="3 5"/>
<text x="46" y="111.8" text-anchor="end" fill="#656D76" font-size="10">15</text>
<line x1="58" y1="81.4" x2="876" y2="81.4" stroke="#D0D7DE" stroke-dasharray="3 5"/>
<text x="46" y="85.4" text-anchor="end" fill="#656D76" font-size="10">20</text>
<line x1="58" y1="55.0" x2="876" y2="55.0" stroke="#D0D7DE" stroke-dasharray="3 5"/>
<text x="46" y="59.0" text-anchor="end" fill="#656D76" font-size="10">25</text>
<path d="M 58.0 187.0 L 58.0 107.8 L 86.2 150.0 L 114.4 113.1 L 142.6 165.9 L 170.8 139.5 L 199.0 139.5 L 227.2 123.6 L 255.4 65.6 L 283.7 150.0 L 311.9 128.9 L 340.1 165.9 L 368.3 128.9 L 396.5 113.1 L 424.7 102.5 L 452.9 139.5 L 481.1 176.4 L 509.3 144.8 L 537.5 118.4 L 565.7 92.0 L 593.9 165.9 L 622.1 160.6 L 650.3 171.2 L 678.6 118.4 L 706.8 144.8 L 735.0 160.6 L 763.2 134.2 L 791.4 165.9 L 819.6 139.5 L 847.8 171.2 L 876.0 139.5 L 876.0 187.0 Z" fill="url(#activity-fill)"/>
<polyline points="58.0,107.8 86.2,150.0 114.4,113.1 142.6,165.9 170.8,139.5 199.0,139.5 227.2,123.6 255.4,65.6 283.7,150.0 311.9,128.9 340.1,165.9 368.3,128.9 396.5,113.1 424.7,102.5 452.9,139.5 481.1,176.4 509.3,144.8 537.5,118.4 565.7,92.0 593.9,165.9 622.1,160.6 650.3,171.2 678.6,118.4 706.8,144.8 735.0,160.6 763.2,134.2 791.4,165.9 819.6,139.5 847.8,171.2 876.0,139.5" fill="none" stroke="#0969DA" stroke-width="3" stroke-linejoin="round" stroke-linecap="round"/>
<circle cx="58.0" cy="107.8" r="2.5" fill="#FFFFFF" stroke="#0969DA" stroke-width="2"/>
<circle cx="86.2" cy="150.0" r="2.5" fill="#FFFFFF" stroke="#0969DA" stroke-width="2"/>
<circle cx="114.4" cy="113.1" r="2.5" fill="#FFFFFF" stroke="#0969DA" stroke-width="2"/>
<circle cx="142.6" cy="165.9" r="2.5" fill="#FFFFFF" stroke="#0969DA" stroke-width="2"/>
<circle cx="170.8" cy="139.5" r="2.5" fill="#FFFFFF" stroke="#0969DA" stroke-width="2"/>
<circle cx="199.0" cy="139.5" r="2.5" fill="#FFFFFF" stroke="#0969DA" stroke-width="2"/>
<circle cx="227.2" cy="123.6" r="2.5" fill="#FFFFFF" stroke="#0969DA" stroke-width="2"/>
<circle cx="255.4" cy="65.6" r="2.5" fill="#FFFFFF" stroke="#0969DA" stroke-width="2"/>
<circle cx="283.7" cy="150.0" r="2.5" fill="#FFFFFF" stroke="#0969DA" stroke-width="2"/>
<circle cx="311.9" cy="128.9" r="2.5" fill="#FFFFFF" stroke="#0969DA" stroke-width="2"/>
<circle cx="340.1" cy="165.9" r="2.5" fill="#FFFFFF" stroke="#0969DA" stroke-width="2"/>
<circle cx="368.3" cy="128.9" r="2.5" fill="#FFFFFF" stroke="#0969DA" stroke-width="2"/>
<circle cx="396.5" cy="113.1" r="2.5" fill="#FFFFFF" stroke="#0969DA" stroke-width="2"/>
<circle cx="424.7" cy="102.5" r="2.5" fill="#FFFFFF" stroke="#0969DA" stroke-width="2"/>
<circle cx="452.9" cy="139.5" r="2.5" fill="#FFFFFF" stroke="#0969DA" stroke-width="2"/>
<circle cx="481.1" cy="176.4" r="2.5" fill="#FFFFFF" stroke="#0969DA" stroke-width="2"/>
<circle cx="509.3" cy="144.8" r="2.5" fill="#FFFFFF" stroke="#0969DA" stroke-width="2"/>
<circle cx="537.5" cy="118.4" r="2.5" fill="#FFFFFF" stroke="#0969DA" stroke-width="2"/>
<circle cx="565.7" cy="92.0" r="2.5" fill="#FFFFFF" stroke="#0969DA" stroke-width="2"/>
<circle cx="593.9" cy="165.9" r="2.5" fill="#FFFFFF" stroke="#0969DA" stroke-width="2"/>
<circle cx="622.1" cy="160.6" r="2.5" fill="#FFFFFF" stroke="#0969DA" stroke-width="2"/>
<circle cx="650.3" cy="171.2" r="2.5" fill="#FFFFFF" stroke="#0969DA" stroke-width="2"/>
<circle cx="678.6" cy="118.4" r="2.5" fill="#FFFFFF" stroke="#0969DA" stroke-width="2"/>
<circle cx="706.8" cy="144.8" r="2.5" fill="#FFFFFF" stroke="#0969DA" stroke-width="2"/>
<circle cx="735.0" cy="160.6" r="2.5" fill="#FFFFFF" stroke="#0969DA" stroke-width="2"/>
<circle cx="763.2" cy="134.2" r="2.5" fill="#FFFFFF" stroke="#0969DA" stroke-width="2"/>
<circle cx="791.4" cy="165.9" r="2.5" fill="#FFFFFF" stroke="#0969DA" stroke-width="2"/>
<circle cx="819.6" cy="139.5" r="2.5" fill="#FFFFFF" stroke="#0969DA" stroke-width="2"/>
<circle cx="847.8" cy="171.2" r="2.5" fill="#FFFFFF" stroke="#0969DA" stroke-width="2"/>
<circle cx="876.0" cy="139.5" r="2.5" fill="#FFFFFF" stroke="#0969DA" stroke-width="2"/>
<text x="58.0" y="211" text-anchor="middle" fill="#656D76" font-size="10">Aug 18</text>
<text x="255.4" y="211" text-anchor="middle" fill="#656D76" font-size="10">Aug 25</text>
<text x="452.9" y="211" text-anchor="middle" fill="#656D76" font-size="10">Sep 1</text>
<text x="650.3" y="211" text-anchor="middle" fill="#656D76" font-size="10">Sep 8</text>
<text x="876.0" y="211" text-anchor="middle" fill="#656D76" font-size="10">Sep 16</text>
</svg>