<svg xmlns="http://www.w3.org/2000/svg" width="900" height="225" viewBox="0 0 900 225" role="img" aria-labelledby="title desc">
<title id="title">GitHub contribution activity for the last 30 days</title>
<desc id="desc">Automatically generated from the public GitHub contribution calendar.</desc>
<style>text{font-family:-apple-system,BlinkMacSystemFont,"Segoe UI",Helvetica,Arial,sans-serif}</style>
<defs><linearGradient id="activity-fill" x1="0" y1="0" x2="0" y2="1"><stop offset="0" stop-color="#0969DA" stop-opacity="0.35"/><stop offset="1" stop-color="#0969DA" stop-opacity="0.02"/></linearGradient></defs>
<rect width="900" height="225" rx="8" fill="#FFFFFF"/>
<rect x="0.5" y="0.5" width="899" height="224" rx="8" fill="none" stroke="#D0D7DE"/>
<text x="24" y="31" fill="#1F2328" font-size="16" font-weight="600">Contribution Activity · Last 30 Days</text>
<text x="876" y="31" text-anchor="end" fill="#656D76" font-size="13">336 contributions</text>
<line x1="58" y1="187.0" x2="876" y2="187.0" stroke="#D0D7DE" stroke-dasharray="3 5"/>
<text x="46" y="191.0" text-anchor="end" fill="#656D76" font-size="10">0</text>
<line x1="58" y1="160.6" x2="876" y2="160.6" stroke="#D0D7DE" stroke-dasharray="3 5"/>
<text x="46" y="164.6" text-anchor="end" fill="#656D76" font-size="10">8</text>
<line x1="58" y1="134.2" x2="876" y2="134.2" stroke="#D0D7DE" stroke-dasharray="3 5"/>
<text x="46" y="138.2" text-anchor="end" fill="#656D76" font-size="10">16</text>
<line x1="58" y1="107.8" x2="876" y2="107.8" stroke="#D0D7DE" stroke-dasharray="3 5"/>
<text x="46" y="111.8" text-anchor="end" fill="#656D76" font-size="10">24</text>
<line x1="58" y1="81.4" x2="876" y2="81.4" stroke="#D0D7DE" stroke-dasharray="3 5"/>
<text x="46" y="85.4" text-anchor="end" fill="#656D76" font-size="10">32</text>
<line x1="58" y1="55.0" x2="876" y2="55.0" stroke="#D0D7DE" stroke-dasharray="3 5"/>
<text x="46" y="59.0" text-anchor="end" fill="#656D76" font-size="10">40</text>
<path d="M 58.0 187.0 L 58.0 117.7 L 86.2 114.4 L 114.4 150.7 L 142.6 163.9 L 170.8 55.0 L 199.0 160.6 L 227.2 144.1 L 255.4 177.1 L 283.7 187.0 L 311.9 137.5 L 340.1 163.9 L 368.3 140.8 L 396.5 173.8 L 424.7 157.3 L 452.9 157.3 L 481.1 147.4 L 509.3 111.1 L 537.5 163.9 L 565.7 150.7 L 593.9 173.8 L 622.1 150.7 L 650.3 140.8 L 678.6 134.2 L 706.8 157.3 L 735.0 180.4 L 763.2 160.6 L 791.4 144.1 L 819.6 127.6 L 847.8 173.8 L 876.0 183.7 L 876.0 187.0 Z" fill="url(#activity-fill)"/>
<polyline points="58.0,117.7 86.2,114.4 114.4,150.7 142.6,163.9 170.8,55.0 199.0,160.6 227.2,144.1 255.4,177.1 283.7,187.0 311.9,137.5 340.1,163.9 368.3,140.8 396.5,173.8 424.7,157.3 452.9,157.3 481.1,147.4 509.3,111.1 537.5,163.9 565.7,150.7 593.9,173.8 622.1,150.7 650.3,140.8 678.6,134.2 706.8,157.3 735.0,180.4 763.2,160.6 791.4,144.1 819.6,127.6 847.8,173.8 876.0,183.7" fill="none" stroke="#0969DA" stroke-width="3" stroke-linejoin="round" stroke-linecap="round"/>
<circle cx="58.0" cy="117.7" r="2.5" fill="#FFFFFF" stroke="#0969DA" stroke-width="2"/>
<circle cx="86.2" cy="114.4" r="2.5" fill="#FFFFFF" stroke="#0969DA" stroke-width="2"/>
<circle cx="114.4" cy="150.7" r="2.5" fill="#FFFFFF" stroke="#0969DA" stroke-width="2"/>
<circle cx="142.6" cy="163.9" r="2.5" fill="#FFFFFF" stroke="#0969DA" stroke-width="2"/>
<circle cx="170.8" cy="55.0" r="2.5" fill="#FFFFFF" stroke="#0969DA" stroke-width="2"/>
<circle cx="199.0" cy="160.6" r="2.5" fill="#FFFFFF" stroke="#0969DA" stroke-width="2"/>
<circle cx="227.2" cy="144.1" r="2.5" fill="#FFFFFF" stroke="#0969DA" stroke-width="2"/>
<circle cx="255.4" cy="177.1" r="2.5" fill="#FFFFFF" stroke="#0969DA" stroke-width="2"/>
<circle cx="283.7" cy="187.0" r="2.5" fill="#FFFFFF" stroke="#0969DA" stroke-width="2"/>
<circle cx="311.9" cy="137.5" r="2.5" fill="#FFFFFF" stroke="#0969DA" stroke-width="2"/>
<circle cx="340.1" cy="163.9" r="2.5" fill="#FFFFFF" stroke="#0969DA" stroke-width="2"/>
<circle cx="368.3" cy="140.8" r="2.5" fill="#FFFFFF" stroke="#0969DA" stroke-width="2"/>
<circle cx="396.5" cy="173.8" r="2.5" fill="#FFFFFF" stroke="#0969DA" stroke-width="2"/>
<circle cx="424.7" cy="157.3" r="2.5" fill="#FFFFFF" stroke="#0969DA" stroke-width="2"/>
<circle cx="452.9" cy="157.3" r="2.5" fill="#FFFFFF" stroke="#0969DA" stroke-width="2"/>
<circle cx="481.1" cy="147.4" r="2.5" fill="#FFFFFF" stroke="#0969DA" stroke-width="2"/>
<circle cx="509.3" cy="111.1" r="2.5" fill="#FFFFFF" stroke="#0969DA" stroke-width="2"/>
<circle cx="537.5" cy="163.9" r="2.5" fill="#FFFFFF" stroke="#0969DA" stroke-width="2"/>
<circle cx="565.7" cy="150.7" r="2.5" fill="#FFFFFF" stroke="#0969DA" stroke-width="2"/>
<circle cx="593.9" cy="173.8" r="2.5" fill="#FFFFFF" stroke="#0969DA" stroke-width="2"/>
<circle cx="622.1" cy="150.7" r="2.5" fill="#FFFFFF" stroke="#0969DA" stroke-width="2"/>
<circle cx="650.3" cy="140.8" r="2.5" fill="#FFFFFF" stroke="#0969DA" stroke-width="2"/>
<circle cx="678.6" cy="134.2" r="2.5" fill="#FFFFFF" stroke="#0969DA" stroke-width="2"/>
<circle cx="706.8" cy="157.3" r="2.5" fill="#FFFFFF" stroke="#0969DA" stroke-width="2"/>
<circle cx="735.0" cy="180.4" r="2.5" fill="#FFFFFF" stroke="#0969DA" stroke-width="2"/>
<circle cx="763.2" cy="160.6" r="2.5" fill="#FFFFFF" stroke="#0969DA" stroke-width="2"/>
<circle cx="791.4" cy="144.1" r="2.5" fill="#FFFFFF" stroke="#0969DA" stroke-width="2"/>
<circle cx="819.6" cy="127.6" r="2.5" fill="#FFFFFF" stroke="#0969DA" stroke-width="2"/>
<circle cx="847.8" cy="173.8" r="2.5" fill="#FFFFFF" stroke="#0969DA" stroke-width="2"/>
<circle cx="876.0" cy="183.7" r="2.5" fill="#FFFFFF" stroke="#0969DA" stroke-width="2"/>
<text x="58.0" y="211" text-anchor="middle" fill="#656D76" font-size="10">Aug 9</text>
<text x="255.4" y="211" text-anchor="middle" fill="#656D76" font-size="10">Aug 16</text>
<text x="452.9" y="211" text-anchor="middle" fill="#656D76" font-size="10">Aug 23</text>
<text x="650.3" y="211" text-anchor="middle" fill="#656D76" font-size="10">Aug 30</text>
<text x="876.0" y="211" text-anchor="middle" fill="#656D76" font-size="10">Sep 7</text>
</svg>