<svg xmlns="http://www.w3.org/2000/svg" width="900" height="225" viewBox="0 0 900 225" role="img" aria-labelledby="title desc">
<title id="title">GitHub contribution activity for the last 30 days</title>
<desc id="desc">Automatically generated from the public GitHub contribution calendar.</desc>
<style>text{font-family:-apple-system,BlinkMacSystemFont,"Segoe UI",Helvetica,Arial,sans-serif}</style>
<defs><linearGradient id="activity-fill" x1="0" y1="0" x2="0" y2="1"><stop offset="0" stop-color="#0969DA" stop-opacity="0.35"/><stop offset="1" stop-color="#0969DA" stop-opacity="0.02"/></linearGradient></defs>
<rect width="900" height="225" rx="8" fill="#FFFFFF"/>
<rect x="0.5" y="0.5" width="899" height="224" rx="8" fill="none" stroke="#D0D7DE"/>
<text x="24" y="31" fill="#1F2328" font-size="16" font-weight="600">Contribution Activity · Last 30 Days</text>
<text x="876" y="31" text-anchor="end" fill="#656D76" font-size="13">277 contributions</text>
<line x1="58" y1="187.0" x2="876" y2="187.0" stroke="#D0D7DE" stroke-dasharray="3 5"/>
<text x="46" y="191.0" text-anchor="end" fill="#656D76" font-size="10">0</text>
<line x1="58" y1="160.6" x2="876" y2="160.6" stroke="#D0D7DE" stroke-dasharray="3 5"/>
<text x="46" y="164.6" text-anchor="end" fill="#656D76" font-size="10">5</text>
<line x1="58" y1="134.2" x2="876" y2="134.2" stroke="#D0D7DE" stroke-dasharray="3 5"/>
<text x="46" y="138.2" text-anchor="end" fill="#656D76" font-size="10">10</text>
<line x1="58" y1="107.8" x2="876" y2="107.8" stroke="#D0D7DE" stroke-dasharray="3 5"/>
<text x="46" y="111.8" text-anchor="end" fill="#656D76" font-size="10">15</text>
<line x1="58" y1="81.4" x2="876" y2="81.4" stroke="#D0D7DE" stroke-dasharray="3 5"/>
<text x="46" y="85.4" text-anchor="end" fill="#656D76" font-size="10">20</text>
<line x1="58" y1="55.0" x2="876" y2="55.0" stroke="#D0D7DE" stroke-dasharray="3 5"/>
<text x="46" y="59.0" text-anchor="end" fill="#656D76" font-size="10">25</text>
<path d="M 58.0 187.0 L 58.0 65.6 L 86.2 150.0 L 114.4 128.9 L 142.6 165.9 L 170.8 128.9 L 199.0 113.1 L 227.2 102.5 L 255.4 139.5 L 283.7 176.4 L 311.9 144.8 L 340.1 118.4 L 368.3 92.0 L 396.5 165.9 L 424.7 160.6 L 452.9 171.2 L 481.1 118.4 L 509.3 144.8 L 537.5 160.6 L 565.7 134.2 L 593.9 165.9 L 622.1 139.5 L 650.3 171.2 L 678.6 128.9 L 706.8 76.1 L 735.0 150.0 L 763.2 118.4 L 791.4 134.2 L 819.6 165.9 L 847.8 128.9 L 876.0 187.0 L 876.0 187.0 Z" fill="url(#activity-fill)"/>
<polyline points="58.0,65.6 86.2,150.0 114.4,128.9 142.6,165.9 170.8,128.9 199.0,113.1 227.2,102.5 255.4,139.5 283.7,176.4 311.9,144.8 340.1,118.4 368.3,92.0 396.5,165.9 424.7,160.6 452.9,171.2 481.1,118.4 509.3,144.8 537.5,160.6 565.7,134.2 593.9,165.9 622.1,139.5 650.3,171.2 678.6,128.9 706.8,76.1 735.0,150.0 763.2,118.4 791.4,134.2 819.6,165.9 847.8,128.9 876.0,187.0" fill="none" stroke="#0969DA" stroke-width="3" stroke-linejoin="round" stroke-linecap="round"/>
<circle cx="58.0" cy="65.6" r="2.5" fill="#FFFFFF" stroke="#0969DA" stroke-width="2"/>
<circle cx="86.2" cy="150.0" r="2.5" fill="#FFFFFF" stroke="#0969DA" stroke-width="2"/>
<circle cx="114.4" cy="128.9" r="2.5" fill="#FFFFFF" stroke="#0969DA" stroke-width="2"/>
<circle cx="142.6" cy="165.9" r="2.5" fill="#FFFFFF" stroke="#0969DA" stroke-width="2"/>
<circle cx="170.8" cy="128.9" r="2.5" fill="#FFFFFF" stroke="#0969DA" stroke-width="2"/>
<circle cx="199.0" cy="113.1" r="2.5" fill="#FFFFFF" stroke="#0969DA" stroke-width="2"/>
<circle cx="227.2" cy="102.5" r="2.5" fill="#FFFFFF" stroke="#0969DA" stroke-width="2"/>
<circle cx="255.4" cy="139.5" r="2.5" fill="#FFFFFF" stroke="#0969DA" stroke-width="2"/>
<circle cx="283.7" cy="176.4" r="2.5" fill="#FFFFFF" stroke="#0969DA" stroke-width="2"/>
<circle cx="311.9" cy="144.8" r="2.5" fill="#FFFFFF" stroke="#0969DA" stroke-width="2"/>
<circle cx="340.1" cy="118.4" r="2.5" fill="#FFFFFF" stroke="#0969DA" stroke-width="2"/>
<circle cx="368.3" cy="92.0" r="2.5" fill="#FFFFFF" stroke="#0969DA" stroke-width="2"/>
<circle cx="396.5" cy="165.9" r="2.5" fill="#FFFFFF" stroke="#0969DA" stroke-width="2"/>
<circle cx="424.7" cy="160.6" r="2.5" fill="#FFFFFF" stroke="#0969DA" stroke-width="2"/>
<circle cx="452.9" cy="171.2" r="2.5" fill="#FFFFFF" stroke="#0969DA" stroke-width="2"/>
<circle cx="481.1" cy="118.4" r="2.5" fill="#FFFFFF" stroke="#0969DA" stroke-width="2"/>
<circle cx="509.3" cy="144.8" r="2.5" fill="#FFFFFF" stroke="#0969DA" stroke-width="2"/>
<circle cx="537.5" cy="160.6" r="2.5" fill="#FFFFFF" stroke="#0969DA" stroke-width="2"/>
<circle cx="565.7" cy="134.2" r="2.5" fill="#FFFFFF" stroke="#0969DA" stroke-width="2"/>
<circle cx="593.9" cy="165.9" r="2.5" fill="#FFFFFF" stroke="#0969DA" stroke-width="2"/>
<circle cx="622.1" cy="139.5" r="2.5" fill="#FFFFFF" stroke="#0969DA" stroke-width="2"/>
<circle cx="650.3" cy="171.2" r="2.5" fill="#FFFFFF" stroke="#0969DA" stroke-width="2"/>
<circle cx="678.6" cy="128.9" r="2.5" fill="#FFFFFF" stroke="#0969DA" stroke-width="2"/>
<circle cx="706.8" cy="76.1" r="2.5" fill="#FFFFFF" stroke="#0969DA" stroke-width="2"/>
<circle cx="735.0" cy="150.0" r="2.5" fill="#FFFFFF" stroke="#0969DA" stroke-width="2"/>
<circle cx="763.2" cy="118.4" r="2.5" fill="#FFFFFF" stroke="#0969DA" stroke-width="2"/>
<circle cx="791.4" cy="134.2" r="2.5" fill="#FFFFFF" stroke="#0969DA" stroke-width="2"/>
<circle cx="819.6" cy="165.9" r="2.5" fill="#FFFFFF" stroke="#0969DA" stroke-width="2"/>
<circle cx="847.8" cy="128.9" r="2.5" fill="#FFFFFF" stroke="#0969DA" stroke-width="2"/>
<circle cx="876.0" cy="187.0" r="2.5" fill="#FFFFFF" stroke="#0969DA" stroke-width="2"/>
<text x="58.0" y="211" text-anchor="middle" fill="#656D76" font-size="10">Aug 25</text>
<text x="255.4" y="211" text-anchor="middle" fill="#656D76" font-size="10">Sep 1</text>
<text x="452.9" y="211" text-anchor="middle" fill="#656D76" font-size="10">Sep 8</text>
<text x="650.3" y="211" text-anchor="middle" fill="#656D76" font-size="10">Sep 15</text>
<text x="876.0" y="211" text-anchor="middle" fill="#656D76" font-size="10">Sep 23</text>
</svg>